<?xml version="1.0" encoding="UTF-8"?>
<svg version="1.1" xmlns="http://www.w3.org/2000/svg" width="3840" height="2160">
<path d="M0 0 C1267.2 0 2534.4 0 3840 0 C3840 712.8 3840 1425.6 3840 2160 C2572.8 2160 1305.6 2160 0 2160 C0 1447.2 0 734.4 0 0 Z " fill="#1D2028" transform="translate(0,0)"/>
<path d="M0 0 C5.63022508 5.63022508 5.63022508 5.63022508 7.65625 8.171875 C8.11467285 8.74502441 8.5730957 9.31817383 9.04541016 9.90869141 C9.5254248 10.51632324 10.00543945 11.12395508 10.5 11.75 C11.01481934 12.39759277 11.52963867 13.04518555 12.06005859 13.71240234 C17.62720248 20.7430824 23.05974631 27.8764411 28.48779297 35.01464844 C30.71133935 37.93390565 32.94824333 40.84278576 35.1875 43.75 C35.98542969 44.78640625 36.78335938 45.8228125 37.60546875 46.890625 C38.39566406 47.91671875 39.18585937 48.9428125 40 50 C41.66695292 52.16644651 43.33347413 54.33322497 45 56.5 C45.83332547 57.58333938 46.6666588 58.66667272 47.5 59.75 C109.375 140.1875 109.375 140.1875 202.5 261.25 C202.9122583 261.78592773 203.3245166 262.32185547 203.74926758 262.87402344 C204.58507376 263.96058779 205.42084835 265.04717645 206.2565918 266.13378906 C208.30183636 268.79288548 210.34769991 271.4514994 212.39453125 274.109375 C217.66896038 280.96016824 222.92625547 287.82383909 228.17626953 294.69335938 C233.10385391 301.13947094 238.04943004 307.57152742 243 314 C244.66695292 316.16644651 246.33347413 318.33322497 248 320.5 C248.83332547 321.58333938 249.6666588 322.66667272 250.5 323.75 C291.75 377.375 333 431 575.5 746.25 C575.9122583 746.78592773 576.3245166 747.32185547 576.74926758 747.87402344 C577.58507376 748.96058779 578.42084835 750.04717645 579.2565918 751.13378906 C581.30183636 753.79288548 583.34769991 756.4514994 585.39453125 759.109375 C590.66896038 765.96016824 595.92625547 772.82383909 601.17626953 779.69335938 C606.10385391 786.13947094 611.04943004 792.57152742 616 799 C617.66695292 801.16644651 619.33347413 803.33322497 621 805.5 C621.83332547 806.58333938 622.6666588 807.66667272 623.5 808.75 C664.75 862.375 706 916 948.5 1231.25 C948.9122583 1231.78592773 949.3245166 1232.32185547 949.74926758 1232.87402344 C950.58507376 1233.96058779 951.42084835 1235.04717645 952.2565918 1236.13378906 C954.30183636 1238.79288548 956.34769991 1241.4514994 958.39453125 1244.109375 C963.66896038 1250.96016824 968.92625547 1257.82383909 974.17626953 1264.69335938 C979.10385391 1271.13947094 984.04943004 1277.57152742 989 1284 C990.66695292 1286.16644651 992.33347413 1288.33322497 994 1290.5 C994.83332547 1291.58333938 995.6666588 1292.66667272 996.5 1293.75 C1051.50000001 1365.25000001 1051.50000001 1365.25000001 1052.75146484 1366.87695312 C1053.57985237 1367.95382451 1054.40830228 1369.03064789 1055.23681641 1370.10742188 C1057.39635041 1372.9142207 1059.55460149 1375.72199335 1061.7109375 1378.53125 C1062.15695312 1379.11197266 1062.60296875 1379.69269531 1063.0625 1380.29101562 C1064.2998068 1381.90209218 1065.53663757 1383.51353429 1066.7734375 1385.125 C1068.24567681 1387.02599672 1069.75081781 1388.90200638 1071.2890625 1390.75 C1073 1393 1073 1393 1073 1395 C718.91 1395 364.82 1395 0 1395 C0 934.65 0 474.3 0 0 Z " fill="#1E2028" transform="translate(0,765)"/>
<path d="M0 0 C5.51157434 5.48125393 5.51157434 5.48125393 7.69140625 8.20703125 C8.15466309 8.78493408 8.61791992 9.36283691 9.09521484 9.95825195 C9.57941895 10.57015381 10.06362305 11.18205566 10.5625 11.8125 C11.08279785 12.46629639 11.6030957 13.12009277 12.13916016 13.79370117 C16.30611448 19.05850939 20.3455246 24.41285164 24.35327148 29.79931641 C29.9177381 37.2661108 35.65968599 44.59263674 41.38964844 51.93261719 C45.28602331 56.93481586 49.13962505 61.97000814 53 67 C54.66609254 69.16710848 56.33306777 71.33353739 58 73.5 C58.83724752 74.58853556 59.67448713 75.67707721 60.51171875 76.765625 C62.13866417 78.88071753 63.7663998 80.99519452 65.39453125 83.109375 C70.66896038 89.96016824 75.92625547 96.82383909 81.17626953 103.69335938 C86.10385391 110.13947094 91.04943004 116.57152742 96 123 C97.66695292 125.16644651 99.33347413 127.33322497 101 129.5 C101.83332547 130.58333938 102.6666588 131.66667272 103.5 132.75 C144.75 186.375 186 240 228.5 295.25 C228.9122583 295.78592773 229.3245166 296.32185547 229.74926758 296.87402344 C230.58507376 297.96058779 231.42084835 299.04717645 232.2565918 300.13378906 C234.30183636 302.79288548 236.34769991 305.4514994 238.39453125 308.109375 C243.66896038 314.96016824 248.92625547 321.82383909 254.17626953 328.69335938 C259.10385391 335.13947094 264.04943004 341.57152742 269 348 C270.66695292 350.16644651 272.33347413 352.33322497 274 354.5 C274.83332547 355.58333938 275.6666588 356.66667272 276.5 357.75 C317.75 411.375 359 465 401.5 520.25 C401.9122583 520.78592773 402.3245166 521.32185547 402.74926758 521.87402344 C403.58507376 522.96058779 404.42084835 524.04717645 405.2565918 525.13378906 C407.30183636 527.79288548 409.34769991 530.4514994 411.39453125 533.109375 C416.66896038 539.96016824 421.92625547 546.82383909 427.17626953 553.69335938 C432.10385391 560.13947094 437.04943004 566.57152742 442 573 C443.66695292 575.16644651 445.33347413 577.33322497 447 579.5 C447.83332547 580.58333938 448.6666588 581.66667272 449.5 582.75 C471.16666667 610.91666667 492.83333333 639.08333333 514.5 667.25 C514.91266113 667.78641113 515.32532227 668.32282227 515.75048828 668.87548828 C516.58238287 669.95704877 517.41408913 671.03875415 518.24560547 672.12060547 C520.34941792 674.85729218 522.45661327 677.59125277 524.5703125 680.3203125 C524.99828125 680.87396484 525.42625 681.42761719 525.8671875 681.99804688 C528.23276396 685.06334028 528.23276396 685.06334028 530.63537264 688.09955806 C532 690 532 690 533.43789625 692.6977275 C536.11259175 697.27265624 538.14571348 700.44056651 543.36125278 702.01408136 C547.65952418 702.39108297 551.83928246 702.41548948 556.14758301 702.32279968 C557.80442784 702.32759956 559.46126451 702.33723662 561.11805677 702.35128051 C565.66168615 702.37584353 570.2024559 702.33193714 574.74572086 702.27672184 C579.64814588 702.22917753 584.5504122 702.24529657 589.45300293 702.25364685 C597.94379331 702.25941232 606.43365326 702.22492783 614.92420959 702.16303062 C627.19993057 702.0735974 639.47520205 702.04498134 651.75121349 702.03116272 C671.6683817 702.00709314 691.5850541 701.93390393 711.50195312 701.82983398 C730.84828207 701.72885056 750.1944763 701.65099503 769.54101562 701.60424805 C771.33006029 701.59991311 771.33006029 701.59991311 773.15524727 701.5954906 C779.13870985 701.58113509 785.12217338 701.56723432 791.10563755 701.55355966 C840.73743436 701.43954242 890.36869299 701.24581272 940 701 C940 701.66 940 702.32 940 703 C808.66 703 677.32 703 542 703 C549.6545129 713.00974764 557.31099961 723.01690441 565 733 C571.07399236 740.88623271 577.13188017 748.78441763 583.17626953 756.69335938 C588.10385391 763.13947094 593.04943004 769.57152742 598 776 C599.66695292 778.16644651 601.33347413 780.33322497 603 782.5 C603.83332547 783.58333938 604.6666588 784.66667272 605.5 785.75 C646.75 839.375 688 893 950.5 1234.25 C950.9122583 1234.78592773 951.3245166 1235.32185547 951.74926758 1235.87402344 C952.58507376 1236.96058779 953.42084835 1238.04717645 954.2565918 1239.13378906 C956.30183636 1241.79288548 958.34769991 1244.4514994 960.39453125 1247.109375 C965.66896038 1253.96016824 970.92625547 1260.82383909 976.17626953 1267.69335938 C981.10385391 1274.13947094 986.04943004 1280.57152742 991 1287 C992.66695292 1289.16644651 994.33347413 1291.33322497 996 1293.5 C996.83332547 1294.58333938 997.6666588 1295.66667272 998.5 1296.75 C1039.75 1350.375 1081 1404 1373.5 1784.25 C1373.9122583 1784.78592773 1374.3245166 1785.32185547 1374.74926758 1785.87402344 C1375.58507376 1786.96058779 1376.42084835 1788.04717645 1377.2565918 1789.13378906 C1379.30183636 1791.79288548 1381.34769991 1794.4514994 1383.39453125 1797.109375 C1388.66896038 1803.96016824 1393.92625547 1810.82383909 1399.17626953 1817.69335938 C1404.10385391 1824.13947094 1409.04943004 1830.57152742 1414 1837 C1415.66695292 1839.16644651 1417.33347413 1841.33322497 1419 1843.5 C1419.83332547 1844.58333938 1420.6666588 1845.66667272 1421.5 1846.75 C1466.5 1905.25 1466.5 1905.25 1467.75146484 1906.87695312 C1468.57985237 1907.95382451 1469.40830228 1909.03064789 1470.23681641 1910.10742188 C1472.39635041 1912.9142207 1474.55460149 1915.72199335 1476.7109375 1918.53125 C1477.15695312 1919.11197266 1477.60296875 1919.69269531 1478.0625 1920.29101562 C1479.2998068 1921.90209218 1480.53663757 1923.51353429 1481.7734375 1925.125 C1483.24567681 1927.02599672 1484.75081781 1928.90200638 1486.2890625 1930.75 C1488 1933 1488 1933 1488 1935 C1435.3360121 1935.36626843 1382.67215296 1935.64817732 1330.00714178 1935.81704527 C1323.78877603 1935.83705644 1317.57041279 1935.85776561 1311.35205078 1935.87890625 C1310.11409338 1935.88310322 1308.87613597 1935.88730018 1307.60066471 1935.89162433 C1287.55891604 1935.96123494 1267.51790211 1936.0873811 1247.47658923 1936.23444474 C1226.91035145 1936.38410095 1206.34449829 1936.47294675 1185.77773833 1936.50541592 C1173.08771677 1936.52736447 1160.39977186 1936.59666381 1147.71038964 1936.72666347 C1139.00721379 1936.81128027 1130.30511045 1936.83679371 1121.60155317 1936.81602204 C1116.58003201 1936.80577763 1111.56213673 1936.82140116 1106.54126167 1936.9072876 C1074.79936351 1937.42408064 1074.79936351 1937.42408064 1068.04943085 1931.49317932 C1065.24550922 1928.2448847 1063.3810689 1924.85337072 1061.80319738 1920.87866116 C1060.6654464 1918.21748644 1058.97448546 1916.15572869 1057.1171875 1913.95703125 C1056.30459473 1912.91615356 1056.30459473 1912.91615356 1055.47558594 1911.85424805 C1054.94739258 1911.18047119 1054.41919922 1910.50669434 1053.875 1909.8125 C1052.68983707 1908.29447933 1051.50494278 1906.77624888 1050.3203125 1905.2578125 C1049.75602539 1904.5349707 1049.19173828 1903.81212891 1048.61035156 1903.06738281 C1044.71397669 1898.06518414 1040.86037495 1893.02999186 1037 1888 C1035.33390747 1885.83289153 1033.66694801 1883.66645047 1032 1881.5 C1031.16665095 1880.41667876 1030.33331759 1879.33334544 1029.5 1878.25 C1029.0875 1877.71375 1028.675 1877.1775 1028.25 1876.625 C1017 1862 1005.75 1847.375 994.5 1832.75 C994.0877417 1832.21407227 993.6754834 1831.67814453 993.25073242 1831.12597656 C992.41492624 1830.03941221 991.57915165 1828.95282355 990.7434082 1827.86621094 C988.69816364 1825.20711452 986.65230009 1822.5485006 984.60546875 1819.890625 C979.33103962 1813.03983176 974.07374453 1806.17616091 968.82373047 1799.30664062 C963.89614609 1792.86052906 958.95056996 1786.42847258 954 1780 C952.33304708 1777.83355349 950.66652587 1775.66677503 949 1773.5 C948.16667453 1772.41666062 947.3333412 1771.33332728 946.5 1770.25 C905.25 1716.625 864 1663 621.5 1347.75 C621.0877417 1347.21407227 620.6754834 1346.67814453 620.25073242 1346.12597656 C619.41492624 1345.03941221 618.57915165 1343.95282355 617.7434082 1342.86621094 C615.69816364 1340.20711452 613.65230009 1337.5485006 611.60546875 1334.890625 C606.33103962 1328.03983176 601.07374453 1321.17616091 595.82373047 1314.30664062 C590.89614609 1307.86052906 585.95056996 1301.42847258 581 1295 C579.33304708 1292.83355349 577.66652587 1290.66677503 576 1288.5 C575.16667453 1287.41666062 574.3333412 1286.33332728 573.5 1285.25 C532.25 1231.625 491 1178 248.5 862.75 C248.0877417 862.21407227 247.6754834 861.67814453 247.25073242 861.12597656 C246.41492624 860.03941221 245.57915165 858.95282355 244.7434082 857.86621094 C242.69816364 855.20711452 240.65230009 852.5485006 238.60546875 849.890625 C233.33103962 843.03983176 228.07374453 836.17616091 222.82373047 829.30664062 C217.89614609 822.86052906 212.95056996 816.42847258 208 810 C206.33304708 807.83355349 204.66652587 805.66677503 203 803.5 C202.16667453 802.41666062 201.3333412 801.33332728 200.5 800.25 C159.25 746.625 118 693 24.24951172 571.12426758 C23.41793189 570.04327879 22.58622658 568.96238651 21.75439453 567.8815918 C19.64318208 565.13817334 17.53432109 562.39300081 15.4296875 559.64453125 C15.00171875 559.08636719 14.57375 558.52820313 14.1328125 557.953125 C10.69092972 553.46371268 10.69092972 553.46371268 9.4239459 551.7381748 C8.00122452 549.90867214 8.00122452 549.90867214 6.02823687 548.24705184 C-0.39598206 541.91585477 -0.89442596 536.08671088 -1.0283837 527.52332953 C-1.03283648 524.44720548 -0.99764507 521.37286909 -0.96203613 518.29696655 C-0.96552639 516.06093587 -0.97253407 513.82490838 -0.98274946 511.5888983 C-1.00062095 505.45422135 -0.96866265 499.3206637 -0.92852497 493.18612933 C-0.89751348 487.24733476 -0.90421143 481.30861589 -0.90997971 475.36976977 C-0.92047707 463.22533007 -0.89381292 451.08123928 -0.84584045 438.93690109 C-0.79847577 426.91556444 -0.76770721 414.89437316 -0.75901794 402.87294388 C-0.75846803 402.12500401 -0.75791811 401.37706415 -0.75735153 400.60645944 C-0.7546448 396.8079249 -0.75223375 393.00939024 -0.74993652 389.21085544 C-0.73314102 362.31804305 -0.6792641 335.42542039 -0.60351562 308.53271484 C-0.53002009 282.40967822 -0.47336108 256.28669355 -0.43945312 230.16357422 C-0.43840092 229.35809929 -0.43734871 228.55262436 -0.43626461 227.7227411 C-0.42571629 219.63370172 -0.4155098 211.54466194 -0.40555374 203.45562181 C-0.38526498 186.97786823 -0.36269497 170.50011804 -0.33874512 154.02236938 C-0.33709764 152.88598271 -0.33709764 152.88598271 -0.33541688 151.72663872 C-0.26183327 101.15101197 -0.13490761 50.57549621 0 0 Z " fill="#262933" transform="translate(0,225)"/>
<path d="M0 0 C28.71372998 -0.34260397 57.42721783 -0.60785555 86.1425914 -0.76597994 C89.53695883 -0.78473928 92.93132221 -0.80415424 96.32568359 -0.82397461 C97.00140542 -0.82790927 97.67712725 -0.83184392 98.3733255 -0.83589781 C109.29751366 -0.90106973 120.22051103 -1.01927963 131.14399406 -1.15729194 C142.36270432 -1.29784613 153.58082253 -1.37981739 164.80045724 -1.41132742 C171.09874668 -1.43085633 177.39434091 -1.47662027 183.69176483 -1.58595085 C189.62536857 -1.68812601 195.55518023 -1.7191078 201.48958015 -1.69661522 C203.66170213 -1.70072664 205.83395679 -1.73036823 208.00531578 -1.78808212 C223.96827322 -2.19139547 223.96827322 -2.19139547 229.04436207 1.47770762 C232.64827273 4.98262283 235.38216175 8.92779707 237.93623877 13.23887241 C239.33253578 15.55053513 240.96699581 17.62943193 242.6640625 19.7265625 C243.65276747 21.02472908 244.63979942 22.32417188 245.625 23.625 C246.71729247 25.06001417 247.80974197 26.49490882 248.90234375 27.9296875 C249.42554199 28.61772461 249.94874023 29.30576172 250.48779297 30.01464844 C252.71133935 32.93390565 254.94824333 35.84278576 257.1875 38.75 C257.98542969 39.78640625 258.78335937 40.8228125 259.60546875 41.890625 C260.39566406 42.91671875 261.18585938 43.9428125 262 45 C263.66695292 47.16644651 265.33347413 49.33322497 267 51.5 C267.83332547 52.58333938 268.6666588 53.66667272 269.5 54.75 C331.375 135.1875 331.375 135.1875 524.5 386.25 C524.9122583 386.78592773 525.3245166 387.32185547 525.74926758 387.87402344 C526.58507376 388.96058779 527.42084835 390.04717645 528.2565918 391.13378906 C530.30183636 393.79288548 532.34769991 396.4514994 534.39453125 399.109375 C539.66896038 405.96016824 544.92625547 412.82383909 550.17626953 419.69335938 C555.10385391 426.13947094 560.04943004 432.57152742 565 439 C566.66695292 441.16644651 568.33347413 443.33322497 570 445.5 C570.83332547 446.58333938 571.6666588 447.66667272 572.5 448.75 C613.75 502.375 655 556 897.5 871.25 C897.9122583 871.78592773 898.3245166 872.32185547 898.74926758 872.87402344 C899.58507376 873.96058779 900.42084835 875.04717645 901.2565918 876.13378906 C903.30183636 878.79288548 905.34769991 881.4514994 907.39453125 884.109375 C912.66295975 890.95237421 917.91840285 897.80512527 923.15649414 904.67138672 C925.76042205 908.08257491 928.37281863 911.48600128 931.015625 914.8671875 C931.71075195 915.75954102 931.71075195 915.75954102 932.41992188 916.66992188 C933.66754302 918.26929524 934.91955561 919.86524022 936.171875 921.4609375 C938 924 938 924 939 927 C888.34018035 927.29754058 837.68044898 927.52661768 787.01992745 927.66384928 C781.0393252 927.68010851 775.05872468 927.6969347 769.078125 927.71411133 C767.88749281 927.71752136 766.69686062 927.7209314 765.47014867 927.72444477 C746.19022161 927.78101567 726.91079834 927.88351659 707.63117017 928.00298635 C687.84915623 928.12454707 668.06740618 928.19676199 648.28503406 928.22315043 C636.07742988 928.24099054 623.87124961 928.29733673 611.66408376 928.40291407 C603.29365328 928.47162146 594.92395909 928.49240435 586.55326708 928.47551791 C581.72281602 928.46718827 576.89485287 928.47996843 572.06484413 928.54967117 C567.63925685 928.61307062 563.2178221 928.61606385 558.79204117 928.57168563 C557.19421255 928.56620433 555.59612203 928.58260449 553.99880697 928.62348137 C542.41523852 928.90259958 542.41523852 928.90259958 538.41882142 925.75442956 C535.48697984 922.71722838 533.24220102 919.32503573 531.07687782 915.71724161 C529.25706215 912.81527526 527.12046979 910.18830946 525 907.5 C524.16519933 906.41779697 523.33169324 905.33459297 522.5 904.25 C522.0875 903.71375 521.675 903.1775 521.25 902.625 C496.66666667 870.66666667 472.08333333 838.70833333 447.5 806.75 C447.0877417 806.21407227 446.6754834 805.67814453 446.25073242 805.12597656 C445.41492624 804.03941221 444.57915165 802.95282355 443.7434082 801.86621094 C441.69816364 799.20711452 439.65230009 796.5485006 437.60546875 793.890625 C432.33103962 787.03983176 427.07374453 780.17616091 421.82373047 773.30664062 C416.89614609 766.86052906 411.95056996 760.42847258 407 754 C405.33304708 751.83355349 403.66652587 749.66677503 402 747.5 C401.16667453 746.41666062 400.3333412 745.33332728 399.5 744.25 C358.25 690.625 317 637 274.5 581.75 C274.0877417 581.21407227 273.6754834 580.67814453 273.25073242 580.12597656 C272.41492624 579.03941221 271.57915165 577.95282355 270.7434082 576.86621094 C268.69816364 574.20711452 266.65230009 571.5485006 264.60546875 568.890625 C259.33103962 562.03983176 254.07374453 555.17616091 248.82373047 548.30664062 C243.89614609 541.86052906 238.95056996 535.42847258 234 529 C232.33304708 526.83355349 230.66652587 524.66677503 229 522.5 C228.16667453 521.41666062 227.3333412 520.33332728 226.5 519.25 C185.25 465.625 144 412 101.5 356.75 C101.0877417 356.21407227 100.6754834 355.67814453 100.25073242 355.12597656 C99.41492624 354.03941221 98.57915165 352.95282355 97.7434082 351.86621094 C95.69816364 349.20711452 93.65230009 346.5485006 91.60546875 343.890625 C86.33103962 337.03983176 81.07374453 330.17616091 75.82373047 323.30664062 C70.89614609 316.86052906 65.95056996 310.42847258 61 304 C59.33304708 301.83355349 57.66652587 299.66677503 56 297.5 C55.16667453 296.41666062 54.3333412 295.33332728 53.5 294.25 C18.5 248.75 18.5 248.75 17.24780273 247.12207031 C16.42188817 246.04842986 15.59588042 244.97486109 14.76977539 243.90136719 C12.57213002 241.04534081 10.37653636 238.18776435 8.18359375 235.328125 C7.72404297 234.72935547 7.26449219 234.13058594 6.79101562 233.51367188 C5.90500807 232.35917719 5.01956896 231.20424598 4.13476562 230.04882812 C2.17580972 227.43175148 2.17580972 227.43175148 0 225 C-0.09795178 222.10481411 -0.12992093 219.23347921 -0.12025452 216.33787537 C-0.12110894 215.41822166 -0.12196337 214.49856795 -0.12284368 213.55104595 C-0.1245013 210.44473723 -0.11897252 207.33848155 -0.11352539 204.23217773 C-0.11324355 202.01530966 -0.11340118 199.7984415 -0.1139679 197.58157349 C-0.11425601 191.54256099 -0.1083571 185.50356817 -0.10139394 179.46456027 C-0.09516264 173.16111267 -0.09455678 166.85766468 -0.09336853 160.55421448 C-0.09060883 149.96753605 -0.08435332 139.38086411 -0.07543945 128.79418945 C-0.06626603 117.88793982 -0.05918486 106.98169216 -0.05493164 96.07543945 C-0.05466892 95.40362817 -0.05440619 94.73181689 -0.05413551 94.03964769 C-0.05283051 90.66950231 -0.05156679 87.29935691 -0.05032361 83.9292115 C-0.03985771 55.95280261 -0.02225698 27.97640181 0 0 Z " fill="#2D94DC" transform="translate(0,0)"/>
<path d="M0 0 C50.64276504 -0.32046523 101.28542761 -0.56714536 151.92900722 -0.71491461 C157.90832093 -0.73242444 163.88763263 -0.75054496 169.86694336 -0.76904297 C171.65249818 -0.77455149 171.65249818 -0.77455149 173.47412481 -0.78017129 C192.74695279 -0.84108511 212.01919596 -0.95146576 231.29167704 -1.08013915 C251.06804068 -1.21107519 270.84409812 -1.28882573 290.62087744 -1.31723893 C302.82397214 -1.33644641 315.02541393 -1.39709885 327.22799977 -1.51083054 C335.59659384 -1.58485361 343.96433388 -1.60719797 352.33323155 -1.58901928 C357.16193809 -1.58005333 361.98775782 -1.593757 366.81595039 -1.66887665 C371.24118302 -1.73722282 375.66160142 -1.74033614 380.08705994 -1.69258453 C381.68357396 -1.68668799 383.28039329 -1.70429508 384.87630985 -1.74836455 C396.44100345 -2.04902088 396.44100345 -2.04902088 400.68404125 1.34843311 C403.87371334 4.64371652 406.39572235 8.31064646 408.8260456 12.18568181 C410.7260358 15.12207081 412.89723213 17.81703561 415.0625 20.5625 C415.88835654 21.63546013 416.71277306 22.70953161 417.53515625 23.78515625 C420.01956719 27.02642066 422.5093802 30.26350537 425 33.5 C425.83335693 34.58331518 426.66669027 35.66664851 427.5 36.75 C427.9125 37.28625 428.325 37.8225 428.75 38.375 C470 92 511.25 145.625 812.5 537.25 C812.91282227 537.78665283 813.32564453 538.32330566 813.75097656 538.8762207 C814.58111766 539.95543659 815.41119618 541.03470062 816.24121094 542.11401367 C818.37286479 544.88574976 820.50572601 547.65654371 822.640625 550.42578125 C823.07761719 550.99296875 823.51460937 551.56015625 823.96484375 552.14453125 C825.16893601 553.70728929 826.37351303 555.26967378 827.578125 556.83203125 C828.37734375 557.87746094 829.1765625 558.92289063 830 560 C830.50260842 560.57413688 831.00521685 561.14827377 831.52305583 561.73980874 C835.81697182 566.86937109 836.8665893 570.4831076 836.73828697 577.08979797 C836.74521004 577.97529467 836.7521331 578.86079137 836.75926596 579.7731213 C836.77513757 582.73786171 836.74824447 585.70064348 836.7215271 588.6652832 C836.72414395 590.81296368 836.72939816 592.9606423 836.7370621 595.1083107 C836.75048182 601.00789817 836.7264738 606.9068324 836.69639373 612.80633664 C836.67049555 619.1689001 836.67925032 625.53142638 836.68380737 631.89402771 C836.68695428 642.91695023 836.66833045 653.93965638 836.63438034 664.96252441 C836.59886825 676.52218638 836.57578269 688.08176338 836.56926346 699.64147949 C836.56885102 700.36044355 836.56843858 701.07940762 836.56801365 701.82015847 C836.56598362 705.47147003 836.56417533 709.12278167 836.56245239 712.77409339 C836.54985265 738.63086616 836.50943616 764.48752799 836.45263672 790.34423828 C836.39752337 815.46239635 836.35502502 840.58052405 836.32958984 865.69873047 C836.32840611 866.86027468 836.32840611 866.86027468 836.32719846 868.04528444 C836.31928728 875.82181181 836.31163241 883.59833943 836.3041653 891.37486724 C836.28894836 907.21630309 836.27202084 923.05773696 836.25405884 938.89916992 C836.2532351 939.62752035 836.25241136 940.35587078 836.25156266 941.10629244 C836.19636625 989.73757545 836.10117107 1038.36879324 836 1087 C830.49909134 1081.54242615 830.49909134 1081.54242615 828.37890625 1078.64453125 C827.92563965 1078.03134033 827.47237305 1077.41814941 827.00537109 1076.78637695 C826.52922363 1076.13499756 826.05307617 1075.48361816 825.5625 1074.8125 C821.07579957 1068.75143205 816.51635613 1062.75601614 811.875 1056.8125 C811.28307861 1056.05404785 810.69115723 1055.2955957 810.08129883 1054.51416016 C808.92440359 1053.031833 807.76742378 1051.54957183 806.61035156 1050.06738281 C802.71397669 1045.06518414 798.86037495 1040.02999186 795 1035 C793.33390747 1032.83289153 791.66694801 1030.66645047 790 1028.5 C789.16665095 1027.41667876 788.33331759 1026.33334544 787.5 1025.25 C787.0875 1024.71375 786.675 1024.1775 786.25 1023.625 C762.5 992.75 762.5 992.75 761.25097656 991.1262207 C760.4144509 990.03876999 759.57786197 988.95136793 758.74121094 987.86401367 C756.70620712 985.21906213 754.67243467 982.57318888 752.640625 979.92578125 C747.84624905 973.68212498 743.02588912 967.45961933 738.1875 961.25 C731.90305059 953.1824492 725.68354062 945.06682722 719.47998047 936.93701172 C715.66746461 931.94715675 711.8314782 926.97529632 708 922 C706.33304708 919.83355349 704.66652587 917.66677503 703 915.5 C702.16667453 914.41666062 701.3333412 913.33332728 700.5 912.25 C678.83333333 884.08333333 657.16666667 855.91666667 635.5 827.75 C635.0877417 827.21407227 634.6754834 826.67814453 634.25073242 826.12597656 C633.41492624 825.03941221 632.57915165 823.95282355 631.7434082 822.86621094 C629.69816364 820.20711452 627.65230009 817.5485006 625.60546875 814.890625 C620.33103962 808.03983176 615.07374453 801.17616091 609.82373047 794.30664062 C604.89614609 787.86052906 599.95056996 781.42847258 595 775 C593.33304708 772.83355349 591.66652587 770.66677503 590 768.5 C589.16667453 767.41666062 588.3333412 766.33332728 587.5 765.25 C546.25 711.625 505 658 22.5 30.75 C22.08709717 30.2132666 21.67419434 29.6765332 21.2487793 29.12353516 C20.4193575 28.04520574 19.59009198 26.96675611 18.76098633 25.88818359 C16.61910264 23.10226055 14.47416226 20.31877167 12.32421875 17.5390625 C0 1.59220183 0 1.59220183 0 0 Z " fill="#3384E8" transform="translate(534,332)"/>
<path d="M0 0 C1.45574574 -0.00904791 1.45574574 -0.00904791 2.94090047 -0.0182786 C4.00142272 -0.01473966 5.06194497 -0.01120071 6.15460426 -0.00755453 C7.85811225 -0.01371243 7.85811225 -0.01371243 9.59603456 -0.01999474 C13.42932561 -0.03136932 17.26247373 -0.02841601 21.09577876 -0.02558279 C23.86071321 -0.02964754 26.62563829 -0.036696 29.39056695 -0.04358959 C36.21040509 -0.05875508 43.03021192 -0.06313599 49.85006517 -0.0642477 C58.01711125 -0.06607443 66.18412834 -0.07940785 74.35116195 -0.09294135 C94.09098508 -0.12507104 113.83080513 -0.13686878 133.57064971 -0.14643885 C142.90717631 -0.15110953 152.24370045 -0.15831467 161.58022512 -0.1658296 C193.53454255 -0.19150078 225.48885859 -0.21293969 257.4431861 -0.2198348 C259.4493234 -0.22027807 261.4554607 -0.22072164 263.461598 -0.22116551 C265.47260306 -0.22160679 267.48360811 -0.22204775 269.49461317 -0.2224884 C273.52909289 -0.22337351 277.56357261 -0.22426774 281.59805232 -0.22516775 C282.59836975 -0.22538653 283.59868717 -0.22560531 284.62931725 -0.22583073 C317.07075952 -0.23309335 349.51211246 -0.2649389 381.95352051 -0.31154848 C416.24548406 -0.36072681 450.53739653 -0.38817961 484.82939637 -0.39057064 C488.59287631 -0.39091355 492.35635623 -0.39134441 496.11983615 -0.3918395 C497.50986701 -0.39200681 497.50986701 -0.39200681 498.9279793 -0.3921775 C513.84866234 -0.39447992 528.76925377 -0.41653564 543.68990586 -0.44561362 C558.68347802 -0.47432873 573.67693258 -0.48082601 588.67052468 -0.46473366 C597.58017008 -0.4558142 606.48943625 -0.46356914 615.39903191 -0.49521067 C621.35053199 -0.5146927 627.30176601 -0.51237142 633.25326358 -0.49233822 C636.64457733 -0.48154017 640.03456814 -0.4834841 643.42591711 -0.50535566 C647.08203108 -0.52744556 650.73621561 -0.51263497 654.39227515 -0.4885726 C655.44109157 -0.50376298 656.48990799 -0.51895337 657.57050672 -0.53460407 C665.04316509 -0.42820801 670.20092519 1.62323698 676.08804256 6.255301 C681.13528307 11.70502591 683.33204602 17.6142958 683.35089809 25.08256578 C683.35858038 26.22966544 683.36626267 27.37676509 683.37417775 28.55862534 C683.37244479 29.8091939 683.37071182 31.05976245 683.36892635 32.34822702 C683.37409755 33.697791 683.38012495 35.04735193 683.38693315 36.39690864 C683.40303417 40.09991695 683.4066501 43.80284763 683.40812808 47.50588679 C683.41183604 51.50197926 683.42693419 55.49803177 683.44039851 59.49410105 C683.46753883 68.2298045 683.47961057 76.96548955 683.48841983 85.70122814 C683.49394934 91.15848952 683.50242492 96.61574383 683.51142818 102.07300043 C683.53581046 117.18999966 683.55640944 132.30699324 683.56317836 147.42401171 C683.56361749 148.39115873 683.56405662 149.35830575 683.56450906 150.35476025 C683.56494562 151.32418908 683.56538217 152.29361791 683.56583196 153.29242337 C683.56671888 155.25677451 683.56761201 157.22112565 683.56851131 159.18547678 C683.56895417 160.15985769 683.56939703 161.1342386 683.56985331 162.13814621 C683.57774668 177.92100098 683.61264806 193.70367092 683.65923035 209.48645432 C683.70669712 225.7001275 683.73158388 241.91370801 683.7339142 258.12745178 C683.73574554 267.22696001 683.74719523 276.32622743 683.78355342 285.42566919 C683.81440934 293.17521968 683.82456497 300.92445491 683.80807722 308.67405517 C683.80028272 312.62509102 683.80202987 316.57549257 683.83019191 320.52644968 C683.85578539 324.15033541 683.85317805 327.77311408 683.82901049 331.39699952 C683.82328448 333.31454972 683.84688287 335.23212008 683.8718546 337.14951622 C683.77615526 345.59235952 681.95719148 352.25817545 677.08804256 359.255301 C671.91774683 363.81682299 667.0009669 366.38107596 660.05822045 366.3794995 C659.2594184 366.38174679 658.46061634 366.38399408 657.63760817 366.38630947 C656.76412189 366.38368246 655.8906356 366.38105545 654.99068004 366.37834883 C653.58831612 366.38007959 653.58831612 366.38007959 652.15762162 366.38184533 C649.0013747 366.38450797 645.84517803 366.37999267 642.68893367 366.37555552 C640.41271633 366.37599129 638.13649903 366.37686631 635.860282 366.37814468 C629.58704587 366.38038844 623.3138267 366.37636996 617.04059273 366.37136662 C610.97603672 366.36750246 604.91148305 366.36832633 598.84692616 366.36904846 C586.43867143 366.37036324 574.03042202 366.36701764 561.62216884 366.36103106 C549.33352823 366.35511735 537.04488984 366.35126578 524.75624782 366.35017824 C523.61084464 366.35007513 523.61084464 366.35007513 522.44230201 366.34996994 C518.5644731 366.34963161 514.68664419 366.34933023 510.80881527 366.34904306 C483.3304377 366.34694174 455.85206303 366.34020182 428.37368709 366.33074045 C401.6760961 366.32155852 374.9785059 366.31447368 348.28091365 366.31023264 C347.45821495 366.31010111 346.63551625 366.30996959 345.78788728 366.30983408 C337.52613241 366.30851557 329.26437753 366.30723976 321.00262264 366.30599522 C304.1719447 366.30345889 287.34126681 366.30063764 270.51058894 366.29764414 C269.73671371 366.29750685 268.96283847 366.29736956 268.16551247 366.29722811 C216.47302126 366.28802489 164.78053178 366.27210264 113.08804256 366.255301 C113.08804256 358.335301 113.08804256 350.415301 113.08804256 342.255301 C292.60804256 342.255301 472.12804256 342.255301 657.08804256 342.255301 C657.08804256 310.245301 657.08804256 278.235301 657.08804256 245.255301 C657.58304256 137.345301 657.58304256 137.345301 658.08804256 27.255301 C441.60804256 27.255301 225.12804256 27.255301 2.08804256 27.255301 C2.08804256 131.205301 2.08804256 235.155301 2.08804256 342.255301 C28.81804256 342.255301 55.54804256 342.255301 83.08804256 342.255301 C83.08804256 350.175301 83.08804256 358.095301 83.08804256 366.255301 C71.99593333 366.30053089 60.90388561 366.33720518 49.81170493 366.35892534 C44.66086263 366.36935124 39.51008683 366.38348869 34.35928279 366.4061799 C29.38612718 366.42795078 24.41303544 366.43987861 19.43983585 366.44505548 C17.54488111 366.44874361 15.64992978 366.45594559 13.75500232 366.46676111 C11.09567591 366.4813324 8.43661162 366.48327658 5.77725154 366.48235178 C4.99825496 366.48954233 4.21925838 366.49673288 3.41665584 366.50414133 C-3.16302512 366.47947041 -8.99769492 365.65351313 -14.09945744 361.130301 C-15.04885197 360.32205881 -15.04885197 360.32205881 -16.01742619 359.4974885 C-22.33680894 352.01846644 -22.48658679 345.18374371 -22.41989201 335.74309397 C-22.42450563 334.37245062 -22.43086165 333.00181222 -22.43880099 331.6311841 C-22.45545442 327.87924558 -22.44726636 324.12771554 -22.43485612 320.37577581 C-22.42579151 316.3238914 -22.43978233 312.27207634 -22.4507758 308.22020578 C-22.46855058 300.28831969 -22.4647257 292.35658511 -22.45312524 284.42469311 C-22.44408709 277.97757109 -22.44286857 271.5304915 -22.4472205 265.08336496 C-22.44783344 264.16533873 -22.44844637 263.24731251 -22.44907787 262.3014673 C-22.45035679 260.43644141 -22.45165365 258.57141553 -22.45296824 256.70638967 C-22.46437099 239.22318182 -22.45126512 221.74005791 -22.42976677 204.25686383 C-22.41189607 189.25955607 -22.41500026 174.26237215 -22.43344182 159.26506662 C-22.45485392 141.84388614 -22.46327238 124.4227792 -22.45099276 107.00158739 C-22.44971858 105.14347062 -22.4484611 103.28535383 -22.4472205 101.42723703 C-22.4466034 100.51303802 -22.4459863 99.59883901 -22.4453505 98.656937 C-22.44189862 92.21849527 -22.44772245 85.78010024 -22.45713872 79.34166574 C-22.46836385 71.49399631 -22.46530786 63.64648689 -22.44401574 55.79883575 C-22.43351221 51.79577278 -22.42937147 47.79297648 -22.44261235 43.78991556 C-22.45455676 40.12332505 -22.44794055 36.45724768 -22.42670214 32.79070354 C-22.42013774 30.84051135 -22.43315393 28.89028337 -22.44693106 26.9401288 C-22.37450973 18.83441498 -21.44027459 13.28165099 -15.94711369 7.0131135 C-15.29613713 6.47428537 -14.64516057 5.93545725 -13.97445744 5.380301 C-13.32605901 4.82600412 -12.67766057 4.27170725 -12.00961369 3.7006135 C-8.15179518 1.04252626 -4.66159733 0.00575782 0 0 Z " fill="#FCFCFD" transform="translate(2855.9119574427605,907.7446990013123)"/>
<path d="M0 0 C1.18958313 0.11988281 1.18958313 0.11988281 2.40319824 0.2421875 C36.51447954 3.7138896 70.43448381 9.01645104 104 16 C105.19270508 16.24266602 106.38541016 16.48533203 107.61425781 16.73535156 C151.07764891 25.65363051 196.30377557 37.90747366 236 58 C236.01458252 58.59200195 236.02916504 59.18400391 236.04418945 59.79394531 C236.95732969 93.28650954 242.22473497 131.50569997 267.8125 155.875 C276.96176725 163.35910061 287.78750623 167.1554146 299.4765625 167.52734375 C301.12265313 167.59571253 302.76873016 167.6644096 304.41479492 167.73339844 C305.26592865 167.76622925 306.11706238 167.79906006 306.99398804 167.83288574 C321.80421982 168.42176995 336.42153844 169.18094572 351 172 C352.06686035 172.20109375 353.1337207 172.4021875 354.23291016 172.609375 C375.02198883 176.59402081 394.74575998 182.16570164 414 191 C413.75830078 190.16855469 413.75830078 190.16855469 413.51171875 189.3203125 C412.95204979 186.78257692 412.8318822 184.47221447 412.8125 181.875 C412.79832031 181.00617188 412.78414062 180.13734375 412.76953125 179.2421875 C413 177 413 177 415 175 C415.40089844 175.90621094 415.80179688 176.81242188 416.21484375 177.74609375 C423.09039877 192.73418519 432.21997307 199.34445413 447 206 C446.67 205.34 446.34 204.68 446 204 C445.87716881 201.66906388 445.82445768 199.33413961 445.8125 197 C445.79832031 195.741875 445.78414062 194.48375 445.76953125 193.1875 C446 190 446 190 448 188 C448.8353125 189.68416016 448.8353125 189.68416016 449.6875 191.40234375 C456.56859399 205.01405055 463.06613257 214.03306628 477 221 C476.67 220.34 476.34 219.68 476 219 C475.90414869 217.35643193 475.87016489 215.70885358 475.875 214.0625 C475.87242187 213.18722656 475.86984375 212.31195312 475.8671875 211.41015625 C476 209 476 209 477 206 C477.66 206 478.32 206 479 206 C479.38929688 206.81082031 479.77859375 207.62164063 480.1796875 208.45703125 C484.40215245 216.81439851 489.18091765 223.4615811 496 230 C496.70125 230.73863281 497.4025 231.47726562 498.125 232.23828125 C501.31790797 235.08339031 503.91188415 236.97724124 508.32958984 237.02539062 C511.05514766 236.85266189 513.77690637 236.64525968 516.5 236.4375 C525.48063038 235.88288972 525.48063038 235.88288972 528.78710938 238.31396484 C531.96510047 242.03036725 533.96036479 246.37045877 535.95703125 250.80175781 C537.58575908 254.23459147 539.65184469 257.34013804 541.75 260.5 C542.11883301 261.07685547 542.48766602 261.65371094 542.86767578 262.24804688 C545.3744253 266.1598028 548.08287301 269.82177215 551.1015625 273.3515625 C552 275 552 275 551.6484375 277.2109375 C551.43445312 277.80132813 551.22046875 278.39171875 551 279 C550.34 279 549.68 279 549 279 C551.29307206 283.48891137 554.38483707 286.33771487 558.3125 289.375 C558.93133057 289.85396729 559.55016113 290.33293457 560.18774414 290.82641602 C570.80457942 298.81020091 582.13545871 303.09917206 595 306 C591.46478254 309.74588219 587.88547707 312.58097452 583.5625 315.4375 C578.87673492 318.58573811 574.77728343 321.79102704 571 326 C567.70166953 324.90055651 567.16260652 324.24345342 565.0625 321.625 C550.95537361 305.13729603 533.7571938 294.84970187 514.20336914 286.03393555 C504.99279325 281.83263227 496.94815744 277.79087083 493 268 C492.85794408 265.53775304 492.77484721 263.07159391 492.7421875 260.60546875 C492.37525668 256.19838258 491.66738657 253.57938851 488.20410156 250.57275391 C484.36225971 248.37831186 480.25873289 246.85865 476.125 245.3125 C474.61777861 244.69808867 473.11290721 244.07788331 471.61035156 243.45214844 C468.55315072 242.18802404 465.48586169 240.9564642 462.40527344 239.75048828 C457.25226918 237.72295082 452.20467071 235.48782502 447.14208984 233.24414062 C423.00805289 222.61363061 398.25341687 213.58150668 373 206 C372.22446777 205.76700195 371.44893555 205.53400391 370.64990234 205.29394531 C334.25037001 194.63575887 293.15148555 193.14226421 259.07568359 211.41601562 C252.75932966 214.95702402 247.33548048 219.08477997 242 224 C241.3709375 224.54914063 240.741875 225.09828125 240.09375 225.6640625 C223.94781773 240.56235455 213.76627392 264.22934195 212.87744141 286.00219727 C212.36434745 305.72525483 212.36434745 305.72525483 216 325 C216.19867676 325.66612305 216.39735352 326.33224609 216.60205078 327.01855469 C225.8940673 357.37943562 245.539283 380.82185584 273.61328125 395.80078125 C303.19250519 410.95569295 333.23404389 412.87305886 365.85137939 413.48898315 C396.07713089 414.08162515 426.05296039 416.95263826 456 421 C457.3907373 421.1851416 457.3907373 421.1851416 458.80957031 421.37402344 C464.23438804 422.11114912 469.61783378 422.999301 475 424 C475.9698584 424.17692383 476.9397168 424.35384766 477.93896484 424.53613281 C537.82057389 435.70964423 603.56942323 461.03366127 639.4453125 513.13671875 C640.30229292 514.42088001 641.15381025 515.70870279 642 517 C642.43151367 517.65693848 642.86302734 518.31387695 643.30761719 518.99072266 C656.43503086 539.32793512 666.86055171 564.39937181 665 589 C663.26369087 585.90518974 662.23966569 582.69974031 661.20117188 579.31713867 C653.21309995 553.63125978 639.34445388 530.6268929 621 511 C620.5344873 510.49210937 620.06897461 509.98421875 619.58935547 509.4609375 C586.42724406 473.5228383 535.52972346 452.67290566 488 445 C488.72582275 445.28077393 489.45164551 445.56154785 490.19946289 445.85083008 C505.61942294 451.89462457 519.90734318 459.8807069 533 470 C533.89332031 470.6703125 534.78664063 471.340625 535.70703125 472.03125 C550.56197138 483.61231277 563.21177385 497.61905132 574 513 C574.69851074 513.98806641 574.69851074 513.98806641 575.41113281 514.99609375 C594.44175985 542.24050665 606.55489571 573.02840906 615 605 C615.20850586 605.78697266 615.41701172 606.57394531 615.63183594 607.38476562 C618.51601457 618.46429164 620.43237924 629.66535927 622 641 C622.17354004 642.16128418 622.34708008 643.32256836 622.52587891 644.51904297 C623.95535706 654.7326707 624.24261852 664.69839336 624.125 675 C624.11492984 676.56509831 624.10581126 678.13020304 624.09765625 679.6953125 C624.07600877 683.46370563 624.04171227 687.23177778 624 691 C623.67 691 623.34 691 623 691 C622.93530518 690.4237085 622.87061035 689.84741699 622.80395508 689.25366211 C621.18992715 675.20122837 618.88659911 661.48268895 615.63964844 647.71533203 C615.03915711 645.16622342 614.4598501 642.61309085 613.8828125 640.05859375 C608.48813455 616.77928297 600.16978979 594.58843706 590 573 C589.5757373 572.09636719 589.15147461 571.19273437 588.71435547 570.26171875 C577.85635135 547.34916609 564.4549749 525.49602708 547 507 C545.89163214 505.69104585 544.78734603 504.37862271 543.6875 503.0625 C520.50148337 476.76744932 486.35387215 462.56477302 453 454 C452.2668457 453.80696289 451.53369141 453.61392578 450.77832031 453.41503906 C436.00643889 449.55495916 421.11928884 447.06222571 406 445 C404.26290771 444.75032471 404.26290771 444.75032471 402.49072266 444.49560547 C391.44155817 442.9912993 380.37965298 442.30223727 369.24972534 441.68164062 C365.9377003 441.49651781 362.62618275 441.30389743 359.31469727 441.109375 C350.36741388 440.58544324 341.41953367 440.07423322 332.46995544 439.59103394 C304.11218731 438.05332762 304.11218731 438.05332762 291 435 C289.76378906 434.72414063 288.52757813 434.44828125 287.25390625 434.1640625 C261.24867899 427.83188437 239.24056354 414.31918444 220 396 C219.29101562 395.35546875 218.58203125 394.7109375 217.8515625 394.046875 C197.31391573 374.76663518 182.81617507 344.18039326 181.08984375 316.01171875 C181.04537109 314.52091797 181.04537109 314.52091797 181 313 C180.97953613 312.36400879 180.95907227 311.72801758 180.93798828 311.07275391 C180.00425634 277.63589019 187.28789785 241.68579294 210 216 C210.71027344 215.16984375 211.42054688 214.3396875 212.15234375 213.484375 C224.34410583 199.51420122 239.2087272 188.5980911 255 179 C253.16256591 172.9478866 250.56485458 167.23516307 248.0625 161.4375 C239.77662325 142.00362713 232.31344503 122.28745721 225.625 102.25 C225.2323999 101.07405273 224.8397998 99.89810547 224.43530273 98.68652344 C224.05704346 97.53700195 223.67878418 96.38748047 223.2890625 95.203125 C222.70257935 93.47835937 222.70257935 93.47835937 222.10424805 91.71875 C221.2805097 88.94466588 220.69384629 86.42365244 220.21801758 83.59375 C218.88132018 75.82395989 218.88132018 75.82395989 214.38916016 69.62609863 C209.43649433 66.64473673 203.94724471 65.11943316 198.4375 63.5 C196.71000329 62.93764247 194.98449948 62.36912816 193.26098633 61.79467773 C188.97945172 60.38318859 184.6782063 59.04884089 180.36645508 57.73309326 C176.9379506 56.67099259 173.54111723 55.52766114 170.140625 54.37890625 C156.13780938 49.68208236 141.96366228 45.62238059 127.71435547 41.74804688 C125.32410257 41.08931915 122.94404279 40.40574533 120.56640625 39.703125 C107.73715375 35.94056207 94.67612349 33.19535123 81.60557556 30.41697693 C77.62356486 29.56934754 73.64712595 28.70062564 69.67431641 27.81079102 C56.09138015 24.78235172 42.4764815 22.22160726 28.75 19.9375 C26.67031864 19.58827648 24.59064754 19.23899189 22.51098633 18.88964844 C7.69957917 16.4110341 -7.11258865 13.98154721 -22 12 C-23.70397949 11.76917725 -23.70397949 11.76917725 -25.44238281 11.53369141 C-45.54876861 8.85735015 -65.7280001 7.07468422 -85.9375 5.375 C-87.77923294 5.21851486 -87.77923294 5.21851486 -89.65817261 5.05886841 C-98.43494696 4.31797711 -107.21477641 3.63292681 -116 3 C-116.98317766 2.92895176 -116.98317766 2.92895176 -117.9862175 2.8564682 C-143.2267001 1.04820141 -168.43442833 0.59619378 -193.7331543 0.39910889 C-198.74989654 0.35816985 -203.76654128 0.30750265 -208.78320312 0.2578125 C-218.52206558 0.16270331 -228.26098494 0.07780709 -238 0 C-238 -0.33 -238 -0.66 -238 -1 C-233.71762626 -1.41169967 -229.43498482 -1.82047069 -225.15209961 -2.22680664 C-223.70248305 -2.36472077 -222.25293564 -2.50336416 -220.8034668 -2.64282227 C-147.74017584 -9.667651 -72.93788083 -7.35824238 0 0 Z " fill="#FCFCFC" transform="translate(2058,763)"/>
<path d="M0 0 C1.34888732 0.00015905 2.69778075 0.00584927 4.04663086 0.01586914 C5.10991859 0.01799156 5.10991859 0.01799156 6.19468689 0.02015686 C8.46699173 0.02577096 10.73919936 0.03832576 13.01147461 0.05102539 C14.54858257 0.05603858 16.08569206 0.0606018 17.62280273 0.06469727 C21.39823103 0.07574497 25.17358632 0.09301898 28.94897461 0.11352539 C35.45256305 16.95505151 41.70677594 33.87820005 47.82397461 50.86352539 C53.85110259 67.59856037 59.94859383 84.30591307 66.11129761 100.99151611 C72.98548746 119.60466368 79.84976862 138.22147819 86.62719727 156.87011719 C87.37827744 158.93502186 88.1310218 160.99932204 88.88549805 163.06298828 C89.91785359 165.88805286 90.94406911 168.71526889 91.96850586 171.54321289 C92.4262011 172.79042618 92.4262011 172.79042618 92.8931427 174.06283569 C94.94897461 179.7702785 94.94897461 179.7702785 94.94897461 183.11352539 C84.71897461 183.11352539 74.48897461 183.11352539 63.94897461 183.11352539 C63.05694336 180.49801758 62.16491211 177.88250977 61.24584961 175.18774414 C60.36899563 172.61921385 59.49176618 170.05081207 58.61450195 167.48242188 C58.01092028 165.71465188 57.40772126 163.94675117 56.80493164 162.17871094 C55.93210918 159.61886597 55.05812485 157.05942241 54.18334961 154.50024414 C53.9013269 153.67483124 53.6193042 152.84941833 53.32873535 151.99899292 C51.4923211 146.64386382 49.59051372 141.31815328 47.58666992 136.02294922 C46.94897461 134.11352539 46.94897461 134.11352539 46.94897461 132.11352539 C24.17897461 132.11352539 1.40897461 132.11352539 -22.05102539 132.11352539 C-22.38102539 133.76352539 -22.71102539 135.41352539 -23.05102539 137.11352539 C-23.51486227 138.6471612 -24.0075582 140.17230371 -24.52563477 141.68847656 C-24.82264282 142.56255661 -25.11965088 143.43663666 -25.42565918 144.33720398 C-25.74546753 145.26756973 -26.06527588 146.19793549 -26.39477539 147.15649414 C-26.72392944 148.12130203 -27.0530835 149.08610992 -27.39221191 150.08015442 C-28.08672556 152.11384176 -28.78276372 154.14700904 -29.48022461 156.1796875 C-30.55033487 159.29901255 -31.61552054 162.41998595 -32.67993164 165.54125977 C-33.3554249 167.5172697 -34.03119653 169.49318449 -34.70727539 171.46899414 C-35.18698792 172.87365181 -35.18698792 172.87365181 -35.6763916 174.3066864 C-35.97339966 175.17130997 -36.27040771 176.03593353 -36.57641602 176.92675781 C-36.83765259 177.68889084 -37.09888916 178.45102386 -37.36804199 179.23625183 C-38.05102539 181.11352539 -38.05102539 181.11352539 -39.05102539 183.11352539 C-49.28102539 183.11352539 -59.51102539 183.11352539 -70.05102539 183.11352539 C-65.25610197 169.35444928 -60.38599579 155.62637333 -55.42602539 141.92602539 C-55.07019379 140.94206787 -54.71436218 139.95811035 -54.3477478 138.94433594 C-47.64651607 120.42039668 -40.83836782 101.93645956 -34.01330566 83.45785522 C-27.7826919 66.58518881 -21.61404554 49.69271161 -15.57568359 32.75024414 C-12.8221625 25.02511664 -10.04611886 17.30853151 -7.23071289 9.60571289 C-6.92884064 8.77387482 -6.62696838 7.94203674 -6.31594849 7.08499146 C-3.7670431 0.14016764 -3.7670431 0.14016764 0 0 Z " fill="#FDFDFD" transform="translate(3163.051025390625,1000.886474609375)"/>
<path d="M0 0 C9.57 0 19.14 0 29 0 C29.33 28.05 29.66 56.1 30 85 C39.4644202 73.96746227 39.4644202 73.96746227 48.71875 62.78125 C51.29842888 59.63616205 53.92631983 56.53520324 56.5625 53.4375 C60.43129353 48.88859582 64.19778544 44.27492657 67.90625 39.59375 C70.85083084 35.94598567 73.89451533 32.3854602 76.93359375 28.81640625 C79.67774533 25.58575688 82.36747809 22.32301946 85 19 C96.45238095 4.54761905 96.45238095 4.54761905 101 0 C103.3756852 -0.0883967 105.72208674 -0.11530305 108.09765625 -0.09765625 C109.16094398 -0.09553383 109.16094398 -0.09553383 110.24571228 -0.09336853 C112.51801712 -0.08775443 114.79022475 -0.07519963 117.0625 -0.0625 C118.59960796 -0.05748681 120.13671745 -0.05292359 121.67382812 -0.04882812 C125.44925642 -0.03778042 129.22461171 -0.02050641 133 0 C131.18415561 3.85976835 128.72034157 6.86268234 125.9375 10.0625 C124.93412516 11.23110957 123.93153143 12.40039022 122.9296875 13.5703125 C122.43178711 14.15071289 121.93388672 14.73111328 121.42089844 15.32910156 C119.43117984 17.66890123 117.49579403 20.05097953 115.5625 22.4375 C111.60556582 27.30049424 107.53564058 32.05700203 103.44384766 36.80615234 C99.64836633 41.22031766 95.94722087 45.70333198 92.27734375 50.22265625 C89.71794218 53.34398475 87.11323367 56.42377587 84.5 59.5 C83.57534409 60.59360058 82.65086353 61.68734946 81.7265625 62.78125 C79.94027345 64.89474951 78.14179861 66.99696695 76.3359375 69.09375 C75.52382812 70.0528125 74.71171875 71.011875 73.875 72 C73.15054688 72.845625 72.42609375 73.69125 71.6796875 74.5625 C69.77032838 77.33329091 69.13538575 78.63777316 69 82 C70.40631433 84.52846106 71.8084229 86.66466864 73.52734375 88.96484375 C74.55468395 90.39722779 75.58048322 91.83071791 76.60498047 93.26513672 C77.15708191 94.0300946 77.70918335 94.79505249 78.27801514 95.58319092 C81.29129525 99.81233537 84.1720013 104.13044638 87.06640625 108.44140625 C88.30641036 110.28075421 89.54664741 112.11994516 90.78710938 113.95898438 C91.71946411 115.34283325 91.71946411 115.34283325 92.6706543 116.75463867 C94.56278092 119.56291695 96.45610845 122.3703826 98.34960938 125.17773438 C103.69595923 133.10730116 109.03643719 141.04033194 114.33203125 149.00390625 C119.25221871 156.40271774 124.25928381 163.74061298 129.28613281 171.06738281 C130.40372987 172.69717263 131.51832982 174.32901643 132.6328125 175.9609375 C133.28137207 176.90759277 133.92993164 177.85424805 134.59814453 178.82958984 C136 181 136 181 136 182 C107.1215047 184.658342 107.1215047 184.658342 99.4375 180.66992188 C95.47554513 177.04225695 93.36973018 172.4040956 91.21826172 167.55322266 C89.07253718 163.05623123 86.14193057 159.08721487 83.3125 155 C82.13059278 153.22499625 80.9522907 151.44758744 79.77734375 149.66796875 C75.69077138 143.51701193 71.53520873 137.41379966 67.375 131.3125 C60.51702685 121.25181464 53.72692801 111.14871799 47 101 C43.2999845 102.6132769 40.46979051 104.93073996 37.375 107.5 C36.41335937 108.2940625 35.45171875 109.088125 34.4609375 109.90625 C30.85027535 112.67978521 30.85027535 112.67978521 29.7215271 116.822052 C29.70820343 118.02562347 29.69487976 119.22919495 29.68115234 120.46923828 C29.67110672 121.13277313 29.6610611 121.79630798 29.65071106 122.47994995 C29.61978012 124.67672852 29.60281688 126.87338469 29.5859375 129.0703125 C29.56723377 130.59204163 29.54766096 132.11376031 29.5272522 133.63546753 C29.47584076 137.64343105 29.43626351 141.65142823 29.39910889 145.6595459 C29.35912552 149.74837634 29.30800741 153.83706568 29.2578125 157.92578125 C29.16094652 165.95043176 29.07760498 173.97514008 29 182 C19.43 182 9.86 182 0 182 C0 121.94 0 61.88 0 0 Z " fill="#FDFDFD" transform="translate(2940,1002)"/>
<path d="M0 0 C9.9 0 19.8 0 30 0 C30 51.81 30 103.62 30 157 C54.75 157 79.5 157 105 157 C105 165.25 105 173.5 105 182 C70.35 182 35.7 182 0 182 C0 121.94 0 61.88 0 0 Z " fill="#FAFAFA" transform="translate(3278,1002)"/>
<path d="M0 0 C0.64116697 1.59613657 1.28166234 3.19254292 1.921875 4.7890625 C2.45699707 6.12251709 2.45699707 6.12251709 3.00292969 7.48291016 C4.74265619 11.87482501 6 15.24499471 6 20 C4.80366943 20.05422119 3.60733887 20.10844238 2.37475586 20.16430664 C-45.93234053 22.42926315 -93.64280873 28.14615091 -141 38 C-141.71768555 38.14910828 -142.43537109 38.29821655 -143.17480469 38.45184326 C-174.03876646 44.89769335 -204.67009763 52.81219489 -234.74151611 62.28839111 C-236.32103302 62.78606935 -237.90094037 63.28250933 -239.48114014 63.77801514 C-276.42674333 75.36729284 -312.75365207 88.33585613 -348.26220703 103.81347656 C-350.89509888 104.95453723 -353.5366689 106.07162546 -356.18359375 107.1796875 C-375.86325219 115.44177871 -395.62971359 124.14505242 -414.28515625 134.546875 C-416.81079877 135.8987297 -419.31952999 136.99666811 -422 138 C-417.4075102 133.13677391 -411.95612111 129.81620473 -406.375 126.1875 C-405.8039856 125.81517242 -405.23297119 125.44284485 -404.64465332 125.05923462 C-392.0535023 116.86538488 -379.11547203 109.32346593 -366 102 C-365.04641602 101.46536133 -364.09283203 100.93072266 -363.11035156 100.37988281 C-304.83131026 67.80318384 -241.66299121 42.65432419 -177.05761719 25.79785156 C-173.56837439 24.88737205 -170.085331 23.95463628 -166.6015625 23.0234375 C-142.14008288 16.52531635 -117.56987898 11.11400105 -92.52587891 7.37744141 C-89.43111275 6.91499133 -86.34082303 6.42552469 -83.25 5.9375 C-82.27546875 5.79183594 -81.3009375 5.64617188 -80.296875 5.49609375 C-77.72065385 5.10843962 -75.14981891 4.70097471 -72.578125 4.28515625 C-48.50135809 0.49806661 -24.34096691 -0.3827659 0 0 Z " fill="#FBFBFB" transform="translate(2279,871)"/>
<path d="M0 0 C2.88549626 6.58341381 4.85210257 12.90116066 6 20 C5.24235352 19.87471924 4.48470703 19.74943848 3.70410156 19.62036133 C-32.6968622 13.70641165 -69.93436079 9.46008529 -106.8125 8.4375 C-107.54765839 8.41698578 -108.28281677 8.39647156 -109.04025269 8.37533569 C-193.66287206 6.12417512 -278.77465885 10.25661641 -362.47412109 23.45068359 C-365.84911051 23.97649208 -369.22649407 24.48136835 -372.60554504 24.98017883 C-399.99705165 29.0250109 -427.32028462 33.4808951 -454.359375 39.48046875 C-455.30334137 39.68988602 -456.24730774 39.89930328 -457.21987915 40.11506653 C-461.81871185 41.13977656 -466.41327189 42.18046648 -471.00341797 43.2434082 C-472.26427216 43.53028252 -472.26427216 43.53028252 -473.55059814 43.82295227 C-475.12407734 44.18101014 -476.69595345 44.54621666 -478.26580811 44.91984558 C-484.62344465 46.35546308 -484.62344465 46.35546308 -488 45 C-449.02317152 32.20655023 -409.55261083 21.80617264 -369.42440796 13.36872864 C-363.71513617 12.16390744 -358.02760668 10.87484227 -352.34155273 9.56469727 C-338.17661982 6.31533696 -323.93704502 3.82036875 -309.58251953 1.56591797 C-306.24897235 1.03932928 -302.9192526 0.49345676 -299.58984375 -0.05859375 C-209.73703442 -14.72844017 -114.50318085 -14.47576306 0 0 Z " fill="#FAFAFA" transform="translate(2269,840)"/>
<path d="M0 0 C9.57 0 19.14 0 29 0 C29 60.06 29 120.12 29 182 C19.43 182 9.86 182 0 182 C0 121.94 0 61.88 0 0 Z " fill="#FEFEFE" transform="translate(3403,1002)"/>
<path d="M0 0 C2 1 2 1 2.79931641 3.01391602 C3.06405762 3.91811279 3.32879883 4.82230957 3.6015625 5.75390625 C3.91939697 6.81375732 4.23723145 7.8736084 4.56469727 8.96557617 C4.91459717 10.15256104 5.26449707 11.3395459 5.625 12.5625 C10.65165643 29.23429819 16.20278392 45.72372701 21.76611328 62.22290039 C22.11154678 63.25091766 22.45698029 64.27893494 22.81288147 65.33810425 C23.46940303 67.29166693 24.12851024 69.24436305 24.79051208 71.19607544 C25.22787437 72.49833572 25.22787437 72.49833572 25.67407227 73.8269043 C25.9311647 74.58770798 26.18825714 75.34851166 26.45314026 76.13237 C27 78 27 78 27 80 C9.84 80 -7.32 80 -25 80 C-22.98489136 72.61126833 -20.87999061 65.39621982 -18.41796875 58.1640625 C-17.72583256 56.10809948 -17.03377796 54.05210898 -16.34179688 51.99609375 C-15.27077351 48.8260982 -14.19822476 45.65663027 -13.1237793 42.48779297 C-8.36049809 28.42162413 -3.93610778 14.32079241 0 0 Z " fill="#181B20" transform="translate(3175,1028)"/>
<path d="M0 0 C4.23692745 1.9530818 6.72363108 3.86258784 8.6015625 8.28125 C10.61553589 14.70882465 10.52049708 22.42234243 8.4765625 28.78125 C5.50549592 32.7426721 2.39094069 35.6847906 -2.3984375 37.28125 C-9.25568155 38.01252952 -13.86444899 37.48708127 -19.3984375 33.28125 C-24.66519068 26.62850914 -25.03151599 20.54644139 -24.3984375 12.28125 C-23.14517499 6.57784351 -19.96961128 3.58805656 -15.3984375 0.28125 C-10.90780688 -1.96406531 -4.70739386 -1.41068481 0 0 Z " fill="#F6F6F6" transform="translate(2956.3984375,1296.71875)"/>
<path d="M0 0 C4.5573551 0.60485945 8.44693062 1.80444906 12.70703125 3.51953125 C13.34086731 3.77385422 13.97470337 4.02817719 14.62774658 4.29020691 C16.69272344 5.12288166 18.75300025 5.96637545 20.8125 6.8125 C21.52252167 7.10278076 22.23254333 7.39306152 22.96408081 7.69213867 C58.97497646 22.44936967 92.2432147 41.1122905 123 65 C123.93070313 65.71671875 124.86140625 66.4334375 125.8203125 67.171875 C131.23739941 71.41724092 136.33720851 75.95515404 141.3984375 80.6171875 C143.65155544 82.68085409 145.93488353 84.69417578 148.25 86.6875 C153.94013676 91.65470955 159.0501391 96.52222812 163 103 C158.33109914 103.80445149 154.56217028 104.05201731 150.52246094 101.33154297 C148.0131879 98.96213274 145.68230439 96.50390332 143.375 93.9375 C141.78098037 92.23609106 140.18465304 90.53684098 138.5859375 88.83984375 C137.81733398 88.01444092 137.04873047 87.18903809 136.25683594 86.33862305 C133.02703808 82.99177821 129.55835568 79.98880907 126 77 C124.97800421 76.11201321 123.95708816 75.22278146 122.9375 74.33203125 C108.14854556 61.64735623 92.38460796 50.52901437 76 40 C75.22269531 39.50032715 74.44539063 39.0006543 73.64453125 38.48583984 C50.45543732 23.74320375 25.41943615 11.37807212 0 1 C0 0.67 0 0.34 0 0 Z " fill="#F6F6F6" transform="translate(2417,890)"/>
<path d="M0 0 C16 0 16 0 23 3 C25 5 25 5 25.3125 8.875 C25.2447898 11.73966214 25.04049306 12.92637626 23.625 15.5 C22 17 22 17 20 17 C20 17.66 20 18.32 20 19 C20.61875 19.12375 21.2375 19.2475 21.875 19.375 C24 20 24 20 26 22 C26.75171036 26.44907642 26.56792666 30.01138693 24.3125 33.9375 C17.03084958 40.43194497 10.23942975 38 0 38 C0 25.46 0 12.92 0 0 Z " fill="#F3F3F3" transform="translate(2841,1296)"/>
<path d="M0 0 C17.0801105 0 17.0801105 0 22.84765625 4.4140625 C24.78623661 7.08207479 24.46221742 9.57753802 24.36328125 12.76953125 C23.83015016 16.04284152 22.41423216 17.79878833 20 20 C19.34 20 18.68 20 18 20 C20.83458444 25.77372322 23.74366828 31.45217559 27 37 C22.70026064 38.05299739 22.70026064 38.05299739 20 37 C17.04065512 33.19512802 13 27.98196766 13 23 C10.69 23 8.38 23 6 23 C6 27.95 6 32.9 6 38 C4.02 38 2.04 38 0 38 C0 25.46 0 12.92 0 0 Z " fill="#F4F4F4" transform="translate(3413,1296)"/>
<path d="M0 0 C2.31 0 4.62 0 7 0 C8.92808077 2.1041603 10.06322186 3.68203098 11.40234375 6.125 C11.76977188 6.74648926 12.13720001 7.36797852 12.51576233 8.00830078 C13.68117921 9.99223813 14.80919646 11.9947679 15.9375 14 C16.72223272 15.3503423 17.50931721 16.69932082 18.29882812 18.046875 C20.23175136 21.34768187 22.11268354 24.67118987 24 28 C24.33 18.76 24.66 9.52 25 0 C26.65 0 28.3 0 30 0 C30 12.21 30 24.42 30 37 C27.36 37 24.72 37 22 37 C19.62304688 34.61328125 19.62304688 34.61328125 17.71875 31.3125 C17.20302429 30.44685425 17.20302429 30.44685425 16.67687988 29.5637207 C15.58946951 27.72413819 14.545028 25.86392195 13.5 24 C12.76833557 22.74581062 12.03398696 21.49318302 11.296875 20.2421875 C9.49392222 17.18041634 7.7510771 14.09413623 6 11 C5.67 19.58 5.34 28.16 5 37 C3.35 37 1.7 37 0 37 C0 24.79 0 12.58 0 0 Z " fill="#FAFAFA" transform="translate(3078,1296)"/>
<path d="M0 0 C4.22882569 1.82608382 5.95470514 3.93245586 8 8 C8.77868857 13.21230276 9.13272476 19.01036156 6.25 23.625 C3.15733247 26.8894824 1.52156526 27.83813136 -2.9375 28.3125 C-6.43355571 27.95575962 -8.20520785 27.09609412 -11 25 C-13.46300136 21.30549796 -13.36729083 18.40358812 -13.375 14.125 C-13.39949219 13.41730469 -13.42398438 12.70960937 -13.44921875 11.98046875 C-13.4699525 8.26912742 -13.12846167 6.19930062 -11.1015625 3.0546875 C-7.50727019 -0.45943472 -4.95902877 -0.33620534 0 0 Z " fill="#17191E" transform="translate(2952,1301)"/>
<path d="M0 0 C1.98 0 3.96 0 6 0 C6.01458252 0.82725586 6.02916504 1.65451172 6.04418945 2.50683594 C6.1186586 6.25502881 6.2153246 10.00232997 6.3125 13.75 C6.33505859 15.05195312 6.35761719 16.35390625 6.38085938 17.6953125 C6.41630859 18.94570312 6.45175781 20.19609375 6.48828125 21.484375 C6.51446533 22.63647461 6.54064941 23.78857422 6.56762695 24.97558594 C7.0347703 28.24321537 7.71187618 29.66195859 10 32 C12.70624604 32.69292993 15.25898213 32.48640192 18 32 C20.17476401 30.45661909 20.81832637 29.36334727 22 27 C22.15411106 24.9692523 22.24982453 22.93393579 22.31640625 20.8984375 C22.35830078 19.68671875 22.40019531 18.475 22.44335938 17.2265625 C22.48267578 15.95554687 22.52199219 14.68453125 22.5625 13.375 C22.60568359 12.09625 22.64886719 10.8175 22.69335938 9.5 C22.79969886 6.33344652 22.90172833 3.16681247 23 0 C24.98 0 26.96 0 29 0 C29.11668418 4.52061442 29.18741645 9.04083847 29.25 13.5625 C29.28351562 14.83931641 29.31703125 16.11613281 29.3515625 17.43164062 C29.42481313 24.48201387 29.451588 29.36671773 25 35 C20.13750977 38.58898089 14.83956607 38.86406587 9 38 C5.0158045 35.97168229 2.27550374 33.84336385 0 30 C-0.34057617 26.79199219 -0.34057617 26.79199219 -0.29296875 23.046875 C-0.28872391 22.38665344 -0.28447906 21.72643188 -0.28010559 21.04620361 C-0.26337435 18.94704609 -0.22573551 16.84886504 -0.1875 14.75 C-0.17244584 13.32293058 -0.15875871 11.89584604 -0.14648438 10.46875 C-0.11349001 6.97885183 -0.06174743 3.4895213 0 0 Z " fill="#F4F4F4" transform="translate(3370,1296)"/>
<path d="M0 0 C6.93 0 13.86 0 21 0 C21 1.65 21 3.3 21 5 C16.05 5 11.1 5 6 5 C6 8.3 6 11.6 6 15 C10.62 15 15.24 15 20 15 C20 16.98 20 18.96 20 21 C15.38 21 10.76 21 6 21 C6 24.96 6 28.92 6 33 C10.62 33 15.24 33 20 33 C20 34.32 20 35.64 20 37 C13.4 37 6.8 37 0 37 C0 24.79 0 12.58 0 0 Z " fill="#F4F4F4" transform="translate(3299,1296)"/>
<path d="M0 0 C6.93 0 13.86 0 21 0 C21 1.65 21 3.3 21 5 C16.05 5 11.1 5 6 5 C6 8.3 6 11.6 6 15 C10.62 15 15.24 15 20 15 C20 16.98 20 18.96 20 21 C15.38 21 10.76 21 6 21 C6 24.96 6 28.92 6 33 C10.62 33 15.24 33 20 33 C20 34.32 20 35.64 20 37 C13.4 37 6.8 37 0 37 C0 24.79 0 12.58 0 0 Z " fill="#F1F1F1" transform="translate(3044,1296)"/>
<path d="M0 0 C0.53882812 0.32097656 1.07765625 0.64195313 1.6328125 0.97265625 C0.9728125 2.62265625 0.3128125 4.27265625 -0.3671875 5.97265625 C-1.0478125 5.80765625 -1.7284375 5.64265625 -2.4296875 5.47265625 C-5.79885269 4.89918132 -8.95540209 4.84143373 -12.3671875 4.97265625 C-13.58334718 6.01731734 -13.58334718 6.01731734 -13.9296875 8.22265625 C-13.65961799 11.00810905 -13.65961799 11.00810905 -11.79296875 12.2734375 C-9.68259021 13.57182277 -7.53944837 14.78103832 -5.3671875 15.97265625 C0.37749335 19.58967753 0.37749335 19.58967753 2.6328125 22.97265625 C3.08963057 27.0840189 3.09013032 29.23768118 0.8828125 32.78515625 C-3.03202427 36.59124756 -5.93623699 37.249811 -11.3671875 37.22265625 C-12.9140625 37.23039062 -12.9140625 37.23039062 -14.4921875 37.23828125 C-17.31316028 36.9776479 -18.96864468 36.42561969 -21.3671875 34.97265625 C-21.3671875 32.99265625 -21.3671875 31.01265625 -21.3671875 28.97265625 C-20.5421875 29.30265625 -19.7171875 29.63265625 -18.8671875 29.97265625 C-14.69817421 31.1638029 -11.691255 31.25620166 -7.3671875 30.97265625 C-6.3771875 30.31265625 -5.3871875 29.65265625 -4.3671875 28.97265625 C-4.48060284 26.56388368 -4.48060284 26.56388368 -5.3671875 23.97265625 C-7.49571756 22.34262782 -7.49571756 22.34262782 -10.3671875 20.97265625 C-11.77199016 20.15453363 -13.16741019 19.32015657 -14.5546875 18.47265625 C-15.22886719 18.07046875 -15.90304688 17.66828125 -16.59765625 17.25390625 C-18.98740007 15.52358402 -20.20682986 13.79603107 -20.7734375 10.88671875 C-20.95282528 6.50666701 -20.78472041 4.54096494 -18.1171875 0.91015625 C-13.17472954 -2.51882176 -5.37372413 -2.3321608 0 0 Z " fill="#F2F3F3" transform="translate(3284.3671875,1297.02734375)"/>
<path d="M0 0 C1.98 0 3.96 0 6 0 C9.9050343 9.14237442 12.90078311 18.56147583 16 28 C18.97 18.76 21.94 9.52 25 0 C26.98 0 28.96 0 31 0 C29.41629695 8.29168664 26.67084512 16.11953709 23.875 24.0625 C23.4018818 25.4184587 22.92922194 26.77457741 22.45703125 28.13085938 C21.30996322 31.42243361 20.15671656 34.71180215 19 38 C17.02 38 15.04 38 13 38 C9.8011261 30.26093128 6.98026519 22.41510103 4.25 14.5 C3.83878906 13.32179688 3.42757812 12.14359375 3.00390625 10.9296875 C2.61589844 9.80820313 2.22789062 8.68671875 1.828125 7.53125 C1.4765332 6.51611328 1.12494141 5.50097656 0.76269531 4.45507812 C0 2 0 2 0 0 Z " fill="#F2F2F2" transform="translate(3172,1296)"/>
<path d="M0 0 C1.05832031 -0.01417969 2.11664062 -0.02835938 3.20703125 -0.04296875 C6.1079626 0.18134966 7.73568353 0.68553979 10.1875 2.1875 C9.8575 3.8375 9.5275 5.4875 9.1875 7.1875 C8.26066406 7.10371094 7.33382812 7.01992187 6.37890625 6.93359375 C5.18136719 6.83175781 3.98382812 6.72992187 2.75 6.625 C1.55503906 6.52058594 0.36007813 6.41617187 -0.87109375 6.30859375 C-2.32708984 6.24865234 -2.32708984 6.24865234 -3.8125 6.1875 C-5.02865968 7.23216109 -5.02865968 7.23216109 -5.375 9.4375 C-5.10493049 12.2229528 -5.10493049 12.2229528 -3.23828125 13.48828125 C-1.12790271 14.78666652 1.01523913 15.99588207 3.1875 17.1875 C8.93218085 20.80452128 8.93218085 20.80452128 11.1875 24.1875 C11.64431807 28.29886265 11.64481782 30.45252493 9.4375 34 C5.48485453 37.84284976 2.60611991 38.44971167 -2.875 38.375 C-3.91785156 38.36855469 -4.96070312 38.36210938 -6.03515625 38.35546875 C-8.8125 38.1875 -8.8125 38.1875 -11.8125 37.1875 C-11.8125 35.2075 -11.8125 33.2275 -11.8125 31.1875 C-11.1525 31.3525 -10.4925 31.5175 -9.8125 31.6875 C-4.71826317 32.53653947 -0.26702125 33.15718084 4.1875 30.1875 C4.07408466 27.77872743 4.07408466 27.77872743 3.1875 25.1875 C1.05896994 23.55747157 1.05896994 23.55747157 -1.8125 22.1875 C-3.21730266 21.36937738 -4.61272269 20.53500032 -6 19.6875 C-6.67417969 19.2853125 -7.34835938 18.883125 -8.04296875 18.46875 C-9.8125 17.1875 -9.8125 17.1875 -11.8125 14.1875 C-12.38859682 9.08492814 -12.38859682 9.08492814 -11.8125 6.1875 C-9.375 3.25 -9.375 3.25 -6.8125 1.1875 C-5.02188728 -0.60311272 -2.41572258 0.01460534 0 0 Z " fill="#F4F4F4" transform="translate(3132.8125,1295.8125)"/>
<path d="M0 0 C6.6 0 13.2 0 20 0 C20 1.65 20 3.3 20 5 C15.38 5.33 10.76 5.66 6 6 C6 8.97 6 11.94 6 15 C10.29 15.33 14.58 15.66 19 16 C19 17.65 19 19.3 19 21 C14.38 21 9.76 21 5 21 C5.33 24.63 5.66 28.26 6 32 C12.93 32.495 12.93 32.495 20 33 C20 34.32 20 35.64 20 37 C13.4 37 6.8 37 0 37 C0 24.79 0 12.58 0 0 Z " fill="#F9F9F9" transform="translate(3214,1296)"/>
<path d="M0 0 C6.93 0 13.86 0 21 0 C21 1.98 21 3.96 21 6 C16.05 6 11.1 6 6 6 C6 9.63 6 13.26 6 17 C10.62 17 15.24 17 20 17 C20 18.65 20 20.3 20 22 C15.38 22 10.76 22 6 22 C6 27.28 6 32.56 6 38 C4.02 38 2.04 38 0 38 C0 25.46 0 12.92 0 0 Z " fill="#EFEFEF" transform="translate(2979,1296)"/>
<path d="M0 0 C2.3671875 1.0234375 2.3671875 1.0234375 4 2 C3.67 3.65 3.34 5.3 3 7 C2.11957031 6.86980469 1.23914062 6.73960938 0.33203125 6.60546875 C-6.86127458 5.50646486 -6.86127458 5.50646486 -13.25 8.25 C-16.63249311 13.56534632 -16.64809432 18.86062004 -16 25 C-14.97113799 27.63327554 -13.96069457 28.8712459 -12 31 C-7.19651495 32.60116168 -1.8351138 32.6117046 3 31 C3 32.98 3 34.96 3 37 C-1.90613215 38.63537738 -6.88031198 38.50113348 -12 38 C-15.5625 36.1875 -15.5625 36.1875 -18 34 C-18.5775 33.525625 -19.155 33.05125 -19.75 32.5625 C-24.38799681 26.76500399 -23.76544099 18.98366263 -23 12 C-21.40004812 7.51601468 -18.80321586 4.78362523 -15.4375 1.5 C-10.38066007 -0.70662106 -5.44253511 -0.65189139 0 0 Z " fill="#F8F8F8" transform="translate(3354,1296)"/>
<path d="M0 0 C2.31 0 4.62 0 7 0 C9.64 5.28 12.28 10.56 15 16 C17.97 10.72 20.94 5.44 24 0 C25.98 0 27.96 0 30 0 C28.99126255 3.53333719 27.72719562 6.62428372 25.87109375 9.77734375 C20.20175652 19.41348331 17.5895087 26.71969913 18 38 C16.02 38 14.04 38 12 38 C12.05542969 37.08863281 12.11085938 36.17726563 12.16796875 35.23828125 C12.23112676 22.54352165 7.34288695 13.58210047 0.99389648 2.78735352 C0 1 0 1 0 0 Z " fill="#F2F2F3" transform="translate(2875,1296)"/>
<path d="M0 0 C2.31 0 4.62 0 7 0 C8.17154293 2.28929053 9.33738074 4.58118362 10.5 6.875 C10.83386719 7.52597656 11.16773437 8.17695312 11.51171875 8.84765625 C14 13.7734375 14 13.7734375 14 16 C17.02080651 13.41332137 18.42011129 10.43042118 20.125 6.875 C22.91666667 1.08333333 22.91666667 1.08333333 24 0 C25.99958364 -0.04080783 28.00045254 -0.04254356 30 0 C28.89872439 3.09320036 27.54068375 5.86570728 25.87109375 8.6796875 C20.21511474 18.33924634 17.58917708 25.71058623 18 37 C16.02 37 14.04 37 12 37 C12.08314453 35.74123047 12.08314453 35.74123047 12.16796875 34.45703125 C12.2339166 22.15116261 7.0965082 13.26453364 0.99389648 2.80322266 C0 1 0 1 0 0 Z " fill="#F6F6F6" transform="translate(3501,1296)"/>
<path d="M0 0 C9.24 0 18.48 0 28 0 C28 1.65 28 3.3 28 5 C24.37 5 20.74 5 17 5 C17 15.89 17 26.78 17 38 C15.02 38 13.04 38 11 38 C11 27.11 11 16.22 11 5 C7.37 5 3.74 5 0 5 C0 3.35 0 1.7 0 0 Z " fill="#F0F1F1" transform="translate(3467,1296)"/>
<path d="M0 0 C6.6 0 13.2 0 20 0 C20 1.65 20 3.3 20 5 C15.38 5.33 10.76 5.66 6 6 C5.67 9.63 5.34 13.26 5 17 C9.62 17 14.24 17 19 17 C19 18.65 19 20.3 19 22 C14.38 22 9.76 22 5 22 C5 26.95 5 31.9 5 37 C3.35 37 1.7 37 0 37 C0 24.79 0 12.58 0 0 Z " fill="#FBFBFB" transform="translate(3012,1296)"/>
<path d="M0 0 C1.98 0 3.96 0 6 0 C6 12.21 6 24.42 6 37 C4.02 37 2.04 37 0 37 C0 24.79 0 12.58 0 0 Z " fill="#FDFDFD" transform="translate(3451,1296)"/>
<path d="M0 0 C1.98 0 3.96 0 6 0 C6 12.21 6 24.42 6 37 C4.02 37 2.04 37 0 37 C0 24.79 0 12.58 0 0 Z " fill="#FDFDFD" transform="translate(3156,1296)"/>
<path d="M0 0 C9.66596696 -0.28429315 9.66596696 -0.28429315 13 2 C13.9375 5.4375 13.9375 5.4375 14 9 C12.23468433 11.6479735 11.06900421 11.9769986 8 13 C6.60560336 13.06665376 5.20830125 13.08538199 3.8125 13.0625 C1.9253125 13.0315625 1.9253125 13.0315625 0 13 C0 8.71 0 4.42 0 0 Z " fill="#25272B" transform="translate(2847,1316)"/>
<path d="M0 0 C3.69628969 -0.21742881 6.45781172 -0.20764658 9.9375 1.125 C12 3 12 3 12.4375 6 C12 9 12 9 10 12 C6.52674819 13.1577506 3.63932552 13.06866652 0 13 C0 8.71 0 4.42 0 0 Z " fill="#222327" transform="translate(3419,1301)"/>
<path d="M0 0 C8.21766784 -0.36254417 8.21766784 -0.36254417 11.5625 1.1875 C13 3 13 3 13.5 5.5 C13 8 13 8 11.5625 9.8125 C7.66280981 11.6196735 4.2730991 11.18851908 0 11 C0 7.37 0 3.74 0 0 Z " fill="#212327" transform="translate(2847,1301)"/>
<path d="M0 0 C0 0.33 0 0.66 0 1 C14.85 1.495 14.85 1.495 30 2 C30 2.33 30 2.66 30 3 C11.19 3 -7.62 3 -27 3 C-27 2.67 -27 2.34 -27 2 C-23.81309767 1.66078548 -20.62539896 1.32970583 -17.4375 1 C-16.54224609 0.90460937 -15.64699219 0.80921875 -14.72460938 0.7109375 C-9.78509212 0.20432035 -4.96511986 -0.10897382 0 0 Z " fill="#AFB0B1" transform="translate(1847,760)"/>
<path d="M0 0 C3.85205198 1.47703954 5.25475324 3.48702291 7.3125 7 C7.84488281 7.886875 8.37726562 8.77375 8.92578125 9.6875 C9.45751953 10.8321875 9.45751953 10.8321875 10 12 C9.67 12.66 9.34 13.32 9 14 C7.68388323 13.04663979 6.37221039 12.08714226 5.0625 11.125 C4.33160156 10.59132813 3.60070313 10.05765625 2.84765625 9.5078125 C1 8 1 8 0 6 C-0.039992 4.00039988 -0.04346799 1.99952758 0 0 Z " fill="#161719" transform="translate(2587,1023)"/>
<path d="M0 0 C4.13585402 0.57901956 7.74133771 1.52042122 11.6171875 3.06640625 C12.63554687 3.46923828 13.65390625 3.87207031 14.703125 4.28710938 C15.74984375 4.70798828 16.7965625 5.12886719 17.875 5.5625 C18.94492188 5.98724609 20.01484375 6.41199219 21.1171875 6.84960938 C23.74694526 7.89446849 26.37440342 8.94473782 29 10 C28.01 11.485 28.01 11.485 27 13 C18.09 9.04 9.18 5.08 0 1 C0 0.67 0 0.34 0 0 Z " fill="#D8D8D9" transform="translate(2417,890)"/>
<path d="M0 0 C0.33 0.66 0.66 1.32 1 2 C-1.91440599 2.6986179 -4.83086087 3.3842031 -7.75 4.0625 C-8.575 4.26166016 -9.4 4.46082031 -10.25 4.66601562 C-11.04921875 4.84970703 -11.8484375 5.03339844 -12.671875 5.22265625 C-13.77160645 5.48187866 -13.77160645 5.48187866 -14.89355469 5.74633789 C-17.20132783 6.02424428 -18.79916037 5.69809241 -21 5 C-18.06746654 3.96448955 -15.12833062 2.94918162 -12.1875 1.9375 C-11.35412109 1.64294922 -10.52074219 1.34839844 -9.66210938 1.04492188 C-8.45844727 0.6340332 -8.45844727 0.6340332 -7.23046875 0.21484375 C-6.49207764 -0.04176025 -5.75368652 -0.29836426 -4.99291992 -0.56274414 C-3 -1 -3 -1 0 0 Z " fill="#CACBCC" transform="translate(1802,880)"/>
<path d="M0 0 C2 1 2 1 3 3 C0.77208002 4.12752649 -1.45725887 5.25208139 -3.6875 6.375 C-4.31333984 6.69210937 -4.93917969 7.00921875 -5.58398438 7.3359375 C-9.00364701 9.05472081 -12.42007074 10.64469217 -16 12 C-12.8980055 8.65707389 -9.56424638 6.23755199 -5.75 3.75 C-4.67234375 3.04359375 -3.5946875 2.3371875 -2.484375 1.609375 C-1.66453125 1.07828125 -0.8446875 0.5471875 0 0 Z " fill="#D4D4D6" transform="translate(1873,997)"/>
<path d="M0 0 C0.33 0 0.66 0 1 0 C1 4.62 1 9.24 1 14 C-0.46132217 11.07735566 -1.34099246 9.07536854 -2 6 C-1.34 6 -0.68 6 0 6 C0 4.02 0 2.04 0 0 Z " fill="#D3D3D4" transform="translate(2722,1338)"/>
</svg>
